<svg width="316" height="316" viewBox="0 0 316 316" fill="none" xmlns="http://www.w3.org/2000/svg">
<path d="M187.625 48.3875C189.106 48.8812 189.6 49.8687 189.6 51.35L180.712 84.925C180.219 86.4062 179.231 86.9 177.75 86.9C176.269 86.4062 175.775 85.4187 175.775 83.9375L184.662 50.3625C184.662 48.8812 186.144 47.8937 187.625 48.3875ZM267.612 128.375C268.106 129.856 267.119 130.844 265.637 131.337L232.062 140.225C230.581 140.719 229.594 139.731 229.1 138.25C228.606 136.769 229.594 135.781 231.075 135.287L264.65 126.4C266.131 126.4 267.119 127.387 267.612 128.375ZM238.481 238.481C237.494 239.469 236.012 239.469 235.025 238.481L210.831 214.287C209.844 213.3 209.844 211.819 210.831 210.831C211.819 209.844 213.3 209.844 214.287 210.831L238.481 235.025C239.469 236.012 239.469 237.494 238.481 238.481ZM128.375 267.612C126.894 267.119 126.4 266.131 126.4 264.65L135.287 231.075C135.781 229.594 136.769 229.1 138.25 229.1C139.731 229.594 140.225 230.581 140.225 232.062L131.337 265.637C131.337 267.119 129.856 268.106 128.375 267.612ZM48.3875 187.625C47.8937 186.144 48.8812 185.156 50.3625 184.662L83.9375 175.775C85.4187 175.281 86.4062 176.269 86.9 177.75C87.3937 179.231 86.4062 180.219 84.925 180.712L51.35 189.6C49.8687 189.6 48.8812 188.612 48.3875 187.625ZM77.5187 77.5187C78.5062 76.5312 79.9875 76.5312 80.975 77.5187L105.169 101.712C106.156 102.7 106.156 104.181 105.169 105.169C104.181 106.156 102.7 106.156 101.712 105.169L77.5187 80.975C76.5312 79.9875 76.5312 78.5062 77.5187 77.5187Z" fill="url(#paint0_linear_2259_6)"/>
<path d="M109.612 109.613L91.8375 175.775L140.225 224.162L206.387 206.387L224.162 140.225L175.775 91.8375L109.612 109.613ZM180.712 82.95L233.05 135.287C234.531 136.769 235.025 138.25 234.531 140.225L215.275 211.819C214.781 213.3 213.3 214.781 211.819 215.275L140.225 234.531C138.744 235.025 136.769 234.531 135.287 233.05L82.95 180.712C81.4687 179.231 80.975 177.75 81.4687 175.775L100.725 104.181C101.219 102.7 102.7 101.219 104.181 100.725L175.775 81.4688C177.75 81.4688 179.231 81.9625 180.712 82.95Z" fill="url(#paint1_linear_2259_6)"/>
<path d="M173.306 100.725C165.406 98.75 160.469 90.3562 162.938 82.4562C165.406 74.5562 173.306 69.6187 181.206 72.0875C189.106 74.0625 194.044 82.4562 191.575 90.3562C189.6 98.2562 181.206 102.7 173.306 100.725ZM215.275 142.694C213.3 134.794 217.744 126.894 225.644 124.425C233.544 122.45 241.444 126.894 243.913 134.794C245.888 142.694 241.444 150.594 233.544 153.062C225.644 155.037 217.25 150.594 215.275 142.694ZM199.969 199.969C205.894 194.044 215.275 194.044 220.706 199.969C226.631 205.894 226.631 215.275 220.706 220.706C214.781 226.631 205.4 226.631 199.969 220.706C194.044 215.275 194.044 205.894 199.969 199.969ZM142.694 215.275C150.594 217.25 155.531 225.644 153.063 233.544C151.088 241.444 142.694 246.381 134.794 243.912C126.894 241.937 121.956 233.544 124.425 225.644C126.4 217.744 134.794 213.3 142.694 215.275ZM100.725 173.306C102.7 181.206 98.2563 189.106 90.3563 191.575C82.4563 193.55 74.5563 189.106 72.0875 181.206C70.1125 173.306 74.5563 165.406 82.4563 162.937C90.3563 160.962 98.75 165.406 100.725 173.306ZM116.031 116.031C110.106 121.956 100.725 121.956 95.2938 116.031C89.3688 110.106 89.3688 100.725 95.2938 95.2937C101.219 89.3687 110.6 89.3687 116.031 95.2937C121.463 101.219 121.956 110.106 116.031 116.031Z" fill="#2FFF4E"/>
<path d="M149.055 191.385C153.439 192.56 158.012 192.86 162.513 192.268C167.013 191.676 171.352 190.203 175.283 187.933C179.214 185.664 182.66 182.642 185.423 179.041C188.186 175.44 190.213 171.33 191.388 166.946C192.562 162.561 192.862 157.988 192.269 153.488C191.677 148.988 190.204 144.648 187.934 140.718C185.664 136.787 182.642 133.342 179.041 130.579C175.44 127.816 171.329 125.789 166.945 124.615C162.56 123.44 157.988 123.14 153.487 123.732C148.987 124.324 144.648 125.797 140.717 128.067C136.786 130.336 133.34 133.358 130.577 136.959C127.814 140.56 125.787 144.67 124.612 149.054C123.437 153.439 123.138 158.012 123.73 162.512C124.323 167.012 125.796 171.351 128.066 175.282C130.336 179.213 133.358 182.658 136.959 185.421C140.56 188.184 144.671 190.211 149.055 191.385Z" fill="#2FFF4E"/>
<path d="M184.663 57.7687C179.231 56.2875 176.269 50.8562 177.75 45.9187C179.231 40.4875 184.663 37.525 189.6 39.0062C195.031 40.4875 197.994 45.9187 196.512 50.8562C195.031 55.7937 190.094 59.25 184.663 57.7687ZM258.231 131.337C256.75 125.906 259.713 120.475 265.144 119.487C270.575 118.006 276.006 120.969 276.994 126.4C278.475 131.831 275.513 137.262 270.081 138.25C265.144 139.731 259.712 136.275 258.231 131.337ZM231.075 231.075C235.025 227.125 240.95 227.125 244.9 231.075C248.85 235.025 248.85 240.95 244.9 244.9C240.95 248.85 235.025 248.85 231.075 244.9C227.125 240.95 227.619 235.025 231.075 231.075ZM131.337 258.231C136.769 259.712 139.731 265.144 138.25 270.081C136.769 275.513 131.337 278.475 126.4 276.994C120.969 275.512 118.006 270.081 119.487 265.144C120.475 259.713 125.906 256.75 131.337 258.231ZM57.7687 184.663C59.25 190.094 56.2875 195.525 50.8562 196.512C45.425 197.994 39.9937 195.031 39.0062 189.6C37.525 184.169 40.4875 178.737 45.9187 177.75C50.8562 176.269 56.2875 179.725 57.7687 184.663ZM84.925 84.925C80.975 88.875 75.05 88.875 71.1 84.925C67.15 80.975 67.15 75.05 71.1 71.1C75.05 67.15 80.975 67.15 84.925 71.1C88.3812 74.5562 88.3812 80.975 84.925 84.925Z" fill="#2FFF4E"/>
<defs>
<linearGradient id="paint0_linear_2259_6" x1="158" y1="48.259" x2="158" y2="267.741" gradientUnits="userSpaceOnUse">
<stop stop-color="#285376"/>
<stop offset="1" stop-color="#51DBDA"/>
</linearGradient>
<linearGradient id="paint1_linear_2259_6" x1="158" y1="81.4687" x2="158" y2="234.716" gradientUnits="userSpaceOnUse">
<stop stop-color="#285376"/>
<stop offset="1" stop-color="#51DBDA"/>
</linearGradient>
</defs>
</svg>
