<svg width="192" height="192" viewBox="0 0 192 192" fill="none" xmlns="http://www.w3.org/2000/svg">
<path d="M96 180C78.6 180 66 142.5 66 96C66 49.5 78.6 12 96 12C113.4 12 126 49.5 126 96C126 142.5 113.4 180 96 180ZM96 174C108.3 174 120 139.2 120 96C120 52.8 108.3 18 96 18C83.7 18 72 52.8 72 96C72 139.2 83.7 174 96 174Z" fill="url(#paint0_linear_2262_99)"/>
<path d="M23.4 138C14.4 123 40.8 93.2999 81 69.8999C121.2 46.4999 159.9 38.9999 168.6 53.9999C177.3 68.9999 151.2 98.7 111 122.1C70.8 145.5 32.1 153 23.4 138ZM28.5 135C34.8 145.8 70.8 138.3 108 116.7C145.2 95.1 169.8 67.7999 163.5 56.9999C157.2 46.1999 121.2 53.7 84 75.2999C46.8 96.8999 22.2 124.2 28.5 135Z" fill="url(#paint1_linear_2262_99)"/>
<path d="M168.6 138C159.9 153 120.9 145.2 81 122.1C41.1 99 14.4 69 23.4 54C32.4 39 71.1 46.8 111 69.9C150.9 93 177.6 123 168.6 138ZM163.5 135C169.8 124.2 145.2 96.9 108 75.3C70.8 53.7 34.5 46.2 28.5 57C22.5 67.8 46.8 95.1 84 116.7C121.2 138.3 157.5 145.8 163.5 135Z" fill="url(#paint2_linear_2262_99)"/>
<path d="M96 111C87.6 111 81 104.4 81 96C81 87.6 87.6 81 96 81C104.4 81 111 87.6 111 96C111 104.4 104.4 111 96 111ZM51 58.5C45.9 58.5 42 54.6 42 49.5C42 44.4 45.9 40.5 51 40.5C56.1 40.5 60 44.4 60 49.5C60 54.6 56.1 58.5 51 58.5ZM78 165C72.9 165 69 161.1 69 156C69 150.9 72.9 147 78 147C83.1 147 87 150.9 87 156C87 161.1 83.1 165 78 165ZM162 84C156.9 84 153 80.1 153 75C153 69.9 156.9 66 162 66C167.1 66 171 69.9 171 75C171 80.1 167.1 84 162 84Z" fill="#2FFF4E"/>
<defs>
<linearGradient id="paint0_linear_2262_99" x1="96" y1="12" x2="96" y2="180" gradientUnits="userSpaceOnUse">
<stop stop-color="#285376"/>
<stop offset="1" stop-color="#51DBDA"/>
</linearGradient>
<linearGradient id="paint1_linear_2262_99" x1="95.9554" y1="46.2356" x2="95.9554" y2="145.764" gradientUnits="userSpaceOnUse">
<stop stop-color="#285376"/>
<stop offset="1" stop-color="#51DBDA"/>
</linearGradient>
<linearGradient id="paint2_linear_2262_99" x1="96" y1="46.3074" x2="96" y2="145.693" gradientUnits="userSpaceOnUse">
<stop stop-color="#285376"/>
<stop offset="1" stop-color="#51DBDA"/>
</linearGradient>
</defs>
</svg>
