<svg width="26" height="26" viewBox="0 0 26 26" fill="none" xmlns="http://www.w3.org/2000/svg">
<path d="M24.2125 13.2617C24.2125 12.4882 24.1491 11.7114 24.0158 10.9509H13.2258V15.3303H19.4041C19.2766 16.0311 19.0083 16.6988 18.6153 17.2929C18.2223 17.887 17.7128 18.3952 17.1177 18.7867V21.6304H20.8048C22.9693 19.6479 24.2125 16.7229 24.2125 13.2617Z" fill="#4285F4"/>
<path d="M13.2275 24.375C16.3117 24.375 18.9133 23.3675 20.8081 21.6288L17.1226 18.7867C16.0972 19.4805 14.7729 19.8738 13.2307 19.8738C10.2472 19.8738 7.7171 17.8718 6.80873 15.1808H3.00623V18.1107C3.96432 19.9977 5.4268 21.5821 7.23118 22.688C9.03555 23.7938 11.1112 24.3778 13.2275 24.375Z" fill="#34A853"/>
<path d="M6.80388 15.1807C6.32469 13.7686 6.32469 12.2379 6.80388 10.8257V7.89587H3.00463C2.20456 9.47952 1.78772 11.229 1.78772 13.0032C1.78772 14.7775 2.20456 16.527 3.00463 18.1106L6.80388 15.1807Z" fill="#FBBC04"/>
<path d="M13.2275 6.12622C14.8567 6.0998 16.4316 6.71225 17.615 7.83247L20.8812 4.58409C18.8054 2.65044 16.0642 1.5912 13.2275 1.62659C11.1106 1.62391 9.03446 2.20847 7.22997 3.31526C5.42548 4.42206 3.96336 6.0077 3.00623 7.89584L6.80223 10.8225C7.70573 8.12822 10.2407 6.12622 13.2242 6.12622H13.2275Z" fill="#EA4335"/>
</svg>
