<svg width="46" height="46" viewBox="0 0 46 46" fill="none" xmlns="http://www.w3.org/2000/svg">
<mask id="path-1-inside-1_2211_82" fill="white">
<path d="M42.4094 10.6601C45.2179 15.0776 46.4355 20.3209 45.8611 25.524C45.2867 30.727 42.9546 35.5785 39.25 39.2769C35.5455 42.9753 30.6902 45.2994 25.4862 45.8652C20.2822 46.4311 15.0409 45.2048 10.6281 42.3891C6.21524 39.5733 2.89493 35.3364 1.21564 30.3784C-0.463655 25.4205 -0.401452 20.0379 1.39197 15.1201C3.18539 10.2022 6.60273 6.04325 11.0795 3.33021C15.5562 0.617164 20.8245 -0.487629 26.014 0.198336L24.5391 11.356C21.889 11.0057 19.1987 11.5699 16.9126 12.9553C14.6265 14.3408 12.8814 16.4646 11.9655 18.976C11.0497 21.4874 11.0179 24.236 11.8755 26.7679C12.733 29.2998 14.4286 31.4634 16.6821 32.9013C18.9356 34.3392 21.6121 34.9654 24.2696 34.6765C26.9271 34.3875 29.4066 33.2007 31.2983 31.312C33.1901 29.4234 34.381 26.9459 34.6744 24.2889C34.9677 21.6319 34.3459 18.9543 32.9117 16.6984L42.4094 10.6601Z"/>
</mask>
<path d="M42.4094 10.6601C45.2179 15.0776 46.4355 20.3209 45.8611 25.524C45.2867 30.727 42.9546 35.5785 39.25 39.2769C35.5455 42.9753 30.6902 45.2994 25.4862 45.8652C20.2822 46.4311 15.0409 45.2048 10.6281 42.3891C6.21524 39.5733 2.89493 35.3364 1.21564 30.3784C-0.463655 25.4205 -0.401452 20.0379 1.39197 15.1201C3.18539 10.2022 6.60273 6.04325 11.0795 3.33021C15.5562 0.617164 20.8245 -0.487629 26.014 0.198336L24.5391 11.356C21.889 11.0057 19.1987 11.5699 16.9126 12.9553C14.6265 14.3408 12.8814 16.4646 11.9655 18.976C11.0497 21.4874 11.0179 24.236 11.8755 26.7679C12.733 29.2998 14.4286 31.4634 16.6821 32.9013C18.9356 34.3392 21.6121 34.9654 24.2696 34.6765C26.9271 34.3875 29.4066 33.2007 31.2983 31.312C33.1901 29.4234 34.381 26.9459 34.6744 24.2889C34.9677 21.6319 34.3459 18.9543 32.9117 16.6984L42.4094 10.6601Z" stroke="url(#paint0_linear_2211_82)" stroke-width="2" mask="url(#path-1-inside-1_2211_82)"/>
<circle cx="33.0625" cy="7.1875" r="4.53125" stroke="url(#paint1_linear_2211_82)"/>
<defs>
<linearGradient id="paint0_linear_2211_82" x1="-5.79528" y1="3.2747e-07" x2="50.1654" y2="55.4173" gradientUnits="userSpaceOnUse">
<stop stop-color="#3D7DDA"/>
<stop offset="1" stop-color="#46F0BF"/>
</linearGradient>
<linearGradient id="paint1_linear_2211_82" x1="26.7635" y1="2.15625" x2="39.0049" y2="14.2788" gradientUnits="userSpaceOnUse">
<stop stop-color="#3D7DDA"/>
<stop offset="1" stop-color="#46F0BF"/>
</linearGradient>
</defs>
</svg>
