<svg width="1061" height="1061" viewBox="0 0 1061 1061" fill="none" xmlns="http://www.w3.org/2000/svg">
<g opacity="0.41">
<path d="M431.031 440.978L512.264 487.397C522.211 494.028 528.842 503.975 528.842 515.58V610.075C528.842 621.68 522.211 633.284 512.264 638.258L431.031 686.334C421.084 692.966 407.822 692.966 397.875 686.334L316.642 639.916C306.695 633.284 300.064 623.337 300.064 611.733V517.237C300.064 505.633 306.695 494.028 316.642 489.055L397.875 442.636C407.822 434.347 421.084 434.347 431.031 440.978Z" fill="#132280"/>
<path d="M666.441 276.855C663.125 275.197 661.467 275.197 658.152 276.855L588.523 316.642C585.208 318.3 585.208 321.616 585.208 323.273V402.848C585.208 406.164 586.866 407.822 588.523 409.48L658.152 449.267C661.467 450.925 663.125 450.925 666.441 449.267L736.069 409.48C739.384 407.822 739.384 404.506 739.384 402.848V323.273C739.384 319.958 737.727 318.3 736.069 316.642L666.441 276.855ZM676.387 263.592L746.016 303.38C754.305 308.353 759.278 316.642 759.278 324.931V404.506C759.278 412.795 754.305 421.084 746.016 426.058L676.387 465.845C668.098 470.819 659.809 470.819 651.52 465.845L581.892 426.058C573.603 421.084 568.63 412.795 568.63 404.506V324.931C568.63 316.642 573.603 308.353 581.892 303.38L651.52 263.592C658.152 258.619 668.098 258.619 676.387 263.592ZM712.859 716.175L643.231 755.962V835.538L712.859 875.325L782.488 835.538V755.962L712.859 716.175ZM799.066 726.122C809.013 732.753 815.644 742.7 815.644 754.305V833.88C815.644 845.484 809.013 857.089 799.066 862.062L729.438 905.166C719.491 911.797 706.228 911.797 696.281 905.166L626.653 865.378C616.706 858.747 610.075 848.8 610.075 837.195V757.62C610.075 746.016 616.706 734.411 626.653 729.437L696.281 689.65C706.228 683.019 719.491 683.019 729.438 689.65L799.066 726.122ZM182.359 175.728V222.147L223.805 245.356L265.25 222.147V175.728L223.805 152.519L182.359 175.728ZM285.144 149.203C293.433 154.177 298.406 162.466 298.406 170.755V227.12C298.406 235.409 293.433 243.698 285.144 248.672L235.409 276.855C227.12 281.828 218.831 281.828 210.542 276.855L160.808 248.672C154.177 243.698 149.203 235.409 149.203 227.12V170.755C149.203 162.466 154.177 154.177 162.466 149.203L212.2 121.02C220.489 116.047 228.778 116.047 237.067 121.02L285.144 149.203ZM198.938 805.697L149.203 833.88V890.245L198.938 918.428L248.672 890.245V833.88L198.938 805.697ZM207.227 790.777L256.961 818.959C261.934 822.275 265.25 827.248 265.25 833.88V890.245C265.25 896.877 261.934 901.85 256.961 905.166L207.227 933.348C202.253 936.664 195.622 936.664 190.648 933.348L140.914 905.166C135.941 901.85 132.625 896.877 132.625 890.245V833.88C132.625 827.248 135.941 822.275 140.914 818.959L190.648 790.777C195.622 787.461 202.253 787.461 207.227 790.777Z" fill="#050D42"/>
<path d="M417.769 804.039L353.114 868.694C351.456 870.352 349.798 870.352 346.483 870.352H255.303C250.33 870.352 247.014 867.036 247.014 862.062C247.014 857.089 250.33 853.773 255.303 853.773H343.167L404.506 792.434V721.148C404.506 716.175 407.822 712.859 412.795 712.859C417.769 712.859 421.084 716.175 421.084 721.148V787.461H596.812C601.786 787.461 605.102 790.777 605.102 795.75C605.102 800.723 601.786 804.039 596.812 804.039H417.769ZM406.164 351.456L293.433 253.645C290.117 250.33 290.117 245.356 291.775 242.041C295.091 238.725 300.064 238.725 303.38 240.383L417.769 338.194H547.078C552.052 338.194 555.367 341.509 555.367 346.483C555.367 351.456 552.052 354.772 547.078 354.772H422.742V414.453C422.742 419.427 419.427 422.742 414.453 422.742C409.48 422.742 406.164 419.427 406.164 414.453V351.456ZM828.906 754.305C823.933 754.305 820.617 750.989 820.617 746.016C820.617 741.042 823.933 737.727 828.906 737.727H920.086C925.059 737.727 928.375 741.042 928.375 746.016C928.375 750.989 925.059 754.305 920.086 754.305H828.906ZM777.514 303.38C774.198 306.695 769.225 306.695 765.909 305.037C762.594 301.722 762.594 296.748 764.252 293.433L863.72 177.386C867.036 174.07 872.009 174.07 875.325 175.728C878.641 179.044 878.641 184.017 876.983 187.333L777.514 303.38ZM165.781 522.211C160.808 522.211 157.492 518.895 157.492 513.922C157.492 508.948 160.808 505.633 165.781 505.633H281.828C286.802 505.633 290.117 508.948 290.117 513.922C290.117 518.895 286.802 522.211 281.828 522.211H165.781ZM721.148 671.414C721.148 676.387 717.833 679.703 712.859 679.703C707.886 679.703 704.57 676.387 704.57 671.414V563.656C704.57 558.683 707.886 555.367 712.859 555.367C717.833 555.367 721.148 558.683 721.148 563.656V671.414Z" fill="#050D42"/>
</g>
</svg>
