<svg width="297" height="344" viewBox="0 0 297 344" fill="none" xmlns="http://www.w3.org/2000/svg">
<path d="M121.237 257.462C123.925 259.075 125 262.3 123.387 264.987C121.775 267.675 118.55 268.75 115.862 267.137L56.7375 234.887C54.05 233.275 52.975 230.05 54.5875 227.362C56.2 224.675 59.425 223.6 62.1125 225.212L121.237 257.462Z" fill="url(#paint0_linear_2259_12)"/>
<path d="M172.3 154.8V144.05C191.65 144.05 201.325 174.15 193.8 207.475C186.275 239.725 148.65 267.675 118.55 267.675V256.925C143.812 256.925 177.137 232.2 183.05 204.788C189.5 177.375 181.975 154.8 172.3 154.8ZM59.425 305.3H177.675C180.9 305.3 183.05 307.45 183.05 310.675C183.05 313.9 180.9 316.05 177.675 316.05H59.425C56.2 316.05 54.05 313.9 54.05 310.675C54.05 307.45 56.2 305.3 59.425 305.3Z" fill="url(#paint1_linear_2259_12)"/>
<path d="M172.3 31.7125C187.887 40.85 193.262 60.2 184.125 75.7875L130.375 168.775L74.475 136.525L128.225 43.5375C136.825 27.95 156.712 23.1125 172.3 31.7125Z" fill="#2FFF4E"/>
<path d="M65.875 144.05C62.65 141.9 61.0375 138.138 62.1125 135.988C63.1875 133.838 67.4875 132.763 71.25 134.913L133.062 170.925C136.287 173.075 137.9 176.838 136.825 178.988C135.212 181.675 131.45 182.213 127.687 180.063L65.875 144.05Z" fill="url(#paint2_linear_2259_12)"/>
<path d="M73.4 148.887L120.163 175.762L112.1 189.737C110.488 192.425 107.263 192.962 104.575 191.887L67.4875 170.387C64.8 168.775 64.2625 165.55 65.3375 162.862L73.4 148.887Z" fill="#2FFF4E"/>
<path d="M156.175 149.425C156.175 153.702 157.874 157.803 160.898 160.827C163.922 163.851 168.023 165.55 172.3 165.55C176.577 165.55 180.678 163.851 183.702 160.827C186.726 157.803 188.425 153.702 188.425 149.425C188.425 145.148 186.726 141.047 183.702 138.023C180.678 134.999 176.577 133.3 172.3 133.3C168.023 133.3 163.922 134.999 160.898 138.023C157.874 141.047 156.175 145.148 156.175 149.425Z" fill="#2FFF4E"/>
<path d="M113.175 278.425V310.675H123.925V278.425H113.175Z" fill="url(#paint3_linear_2259_12)"/>
<path d="M97.05 262.3C97.05 265.123 97.6061 267.919 98.6866 270.528C99.7671 273.136 101.351 275.506 103.347 277.503C105.344 279.499 107.714 281.083 110.322 282.163C112.931 283.244 115.727 283.8 118.55 283.8C121.373 283.8 124.169 283.244 126.778 282.163C129.386 281.083 131.756 279.499 133.753 277.503C135.749 275.506 137.333 273.136 138.413 270.528C139.494 267.919 140.05 265.123 140.05 262.3C140.05 256.598 137.785 251.129 133.753 247.097C129.721 243.065 124.252 240.8 118.55 240.8C112.848 240.8 107.379 243.065 103.347 247.097C99.3152 251.129 97.05 256.598 97.05 262.3Z" fill="#2FFF4E"/>
<defs>
<linearGradient id="paint0_linear_2259_12" x1="88.9875" y1="224.455" x2="88.9875" y2="267.895" gradientUnits="userSpaceOnUse">
<stop stop-color="#285376"/>
<stop offset="1" stop-color="#51DBDA"/>
</linearGradient>
<linearGradient id="paint1_linear_2259_12" x1="125.202" y1="144.05" x2="125.202" y2="316.05" gradientUnits="userSpaceOnUse">
<stop stop-color="#285376"/>
<stop offset="1" stop-color="#51DBDA"/>
</linearGradient>
<linearGradient id="paint2_linear_2259_12" x1="99.4687" y1="133.741" x2="99.4687" y2="181.389" gradientUnits="userSpaceOnUse">
<stop stop-color="#285376"/>
<stop offset="1" stop-color="#51DBDA"/>
</linearGradient>
<linearGradient id="paint3_linear_2259_12" x1="118.55" y1="278.425" x2="118.55" y2="310.675" gradientUnits="userSpaceOnUse">
<stop stop-color="#285376"/>
<stop offset="1" stop-color="#51DBDA"/>
</linearGradient>
</defs>
</svg>
